<svg xmlns="http://www.w3.org/2000/svg" width="2720" height="1071" viewBox="0 0 2720 1071">
  <g fill="none" fill-rule="evenodd" stroke="#FFF" stroke-width="2.6" opacity=".05" transform="translate(2 2)">
    <path d="M711.996047 82L834.321648 82C840.06541 82 844.721648 86.6562389 844.721648 92.4000006 844.721648 92.4915702 844.720439 92.5831359 844.718021 92.6746737L819.267549 1055.97473C819.118676 1061.60953 814.50795 1066.10005 808.871176 1066.10005L673.820354 1066.10005C668.076592 1066.10005 663.420353 1061.44382 663.420353 1055.70005 663.420353 1055.56274 663.423073 1055.42543 663.428511 1055.28822L701.604204 91.9881706C701.825307 86.4090081 706.412505 82 711.996047 82zM452.678423 82L561.736501 82C567.426687 82 572.060433 86.5729386 572.135594 92.2626281L584.860825 1055.56268C584.936694 1061.30594 580.342365 1066.02328 574.599104 1066.09915 574.553316 1066.09975 574.507524 1066.10005 574.461732 1066.10005L478.128885 1066.10005C472.492111 1066.10005 467.881384 1061.60953 467.732512 1055.97473L442.28205 92.6746735C442.130352 86.9329154 446.661992 82.1553255 452.40375 82.0036278 452.495288 82.0012094 452.586853 82 452.678423 82zM244.400013 82L340.179695 82C345.923457 82 350.579696 86.6562389 350.579696 92.4000006 350.579696 92.5373176 350.576976 92.6746212 350.571539 92.8118305L312.395845 1056.11188C312.174742 1061.69105 307.587544 1066.10005 302.004002 1066.10005L244.400013 1066.10005C238.656252 1066.10005 234.000013 1061.44382 234.000013 1055.70005L234.000013 92.4000006C234.000013 86.6562389 238.656252 82 244.400013 82z"/>
    <rect width="117" height="984.1" y="82" rx="10.4"/>
    <path d="M933.538343 82L1068.32165 82C1074.06541 82 1078.72165 86.6562389 1078.72165 92.4000006 1078.72165 92.4915702 1078.72044 92.5831359 1078.71803 92.6746735L1053.26756 1055.97473C1053.11869 1061.60953 1048.50796 1066.10005 1042.87119 1066.10005L946.263574 1066.10005C940.573388 1066.10005 935.939642 1061.52712 935.864481 1055.83743L923.13925 92.537373C923.063381 86.7941124 927.65771 82.076776 933.400971 82.0009073 933.446759 82.0003024 933.492551 82 933.538343 82zM1154.82038 82L1315.17976 82C1320.92352 82 1325.57976 86.6562389 1325.57976 92.4000006 1325.57976 92.5373177 1325.57704 92.6746213 1325.5716 92.8118306L1287.3959 1056.11188C1287.17479 1061.69105 1282.58759 1066.10005 1277.00405 1066.10005L1192.99607 1066.10005C1187.41253 1066.10005 1182.82533 1061.69105 1182.60423 1056.11188L1144.42854 92.8118305C1144.20109 87.0725739 1148.66929 82.2356046 1154.40855 82.0081572 1154.54576 82.0027196 1154.68306 82 1154.82038 82zM1414.12894 82L1484.87121 82C1490.50799 82 1495.11872 86.49052 1495.26759 92.1253276L1520.71805 1055.42538C1520.86975 1061.16714 1516.33811 1065.94473 1510.59635 1066.09643 1510.50481 1066.09884 1510.41325 1066.10005 1510.32168 1066.10005L1388.67847 1066.10005C1382.93471 1066.10005 1378.27847 1061.44382 1378.27847 1055.70005 1378.27847 1055.60848 1378.27968 1055.51692 1378.2821 1055.42538L1403.73256 92.1253276C1403.88144 86.49052 1408.49216 82 1414.12894 82z"/>
    <path d="M36.1451854 18L106.854815 18C112.498093 18 117.111654 22.5005226 117.251616 28.1420647L142.735586 1055.34206C142.87804 1061.08406 138.338715 1065.85435 132.59672 1065.9968 132.510758 1065.99893 132.424773 1066 132.338784 1066L10.6612159 1066C4.91745422 1066 .26121536 1061.34376.26121536 1055.6.26121536 1055.51401.262281807 1055.42803.264414455 1055.34206L25.7483839 28.1420647C25.8883458 22.5005226 30.5019074 18 36.1451854 18zM244.273957 0L340.850577 0C346.495547-1.03696412e-15 351.109845 4.50312597 351.247486 10.1464174L376.740169 1055.34642C376.880219 1061.08847 372.338897 1065.85686 366.596843 1065.99691 366.512331 1065.99897 366.427797 1066 366.34326 1066L231.527615 1066C225.783854 1066 221.127615 1061.34376 221.127615 1055.6 221.127615 1055.55772 221.127873 1055.51545 221.128388 1055.47318L233.874729 10.2731807C233.944167 4.57930754 238.57966 1.525688e-14 244.273957 0zM453.053487 0L600.600024 0C606.343785-1.05511191e-15 611.000024 4.65623886 611.000024 10.4000006L611.000024 1055.6C611.000024 1061.34376 606.343785 1066 600.600024 1066L516.785194 1066C511.287245 1066 506.739093 1061.72073 506.404474 1056.23297L442.672766 11.0329713C442.323186 5.29985767 446.687403.368860087 452.420516.019279985 452.631262.00642964156 452.84235 1.60259968e-14 453.053487 0z" transform="translate(2105 .1)"/>
    <path d="M1622.27403.100054145L1718.85065.100054145C1724.49562.100054145 1729.10992 4.60318011 1729.24756 10.2464716L1754.74024 1055.44647C1754.88029 1061.18852 1750.33897 1065.95691 1744.59692 1066.09696 1744.51241 1066.09902 1744.42787 1066.10005 1744.34334 1066.10005L1609.52769 1066.10005C1603.78393 1066.10005 1599.12769 1061.44382 1599.12769 1055.70005 1599.12769 1055.65778 1599.12795 1055.61551 1599.12846 1055.57323L1611.87481 10.3732349C1611.94424 4.67936169 1616.57974.100054145 1622.27403.100054145zM1831.05356.100054145L1978.6001.100054145C1984.34386.100054145 1989.0001 4.756293 1989.0001 10.5000547L1989.0001 1055.70005C1989.0001 1061.44382 1984.34386 1066.10005 1978.6001 1066.10005L1894.78527 1066.10005C1889.28732 1066.10005 1884.73917 1061.82078 1884.40455 1056.33302L1820.67284 11.1330255C1820.32326 5.39991181 1824.68748.468914232 1830.42059.11933413 1830.63134.106483786 1830.84243.100054145 1831.05356.100054145z"/>
    <rect width="2374" height="117" x="152.1" y="144.4" rx="10.4"/>
    <rect width="2374" height="117" x="152.1" y="378.4" rx="10.4"/>
    <rect width="2374" height="117" x="152.1" y="612.4" rx="10.4"/>
    <rect width="2374" height="117" x="152.1" y="846.4" rx="10.4"/>
  </g>
</svg>